ffmpeg started on 2023-02-26 at 18:00:53
Report written to "D:/java/GitHub/pornMagnetSpringBoot/jiuse911Modeul/Logs/2023-02-26_18-00-11-739_ffreport.log"
Command line:
"D:\\java\\GitHub\\pornMagnetSpringBoot\\ffmpeg.exe" -loglevel warning -i "concat:00.ts|01.ts|02.ts|03.ts|04.ts|05.ts|06.ts|07.ts|08.ts|09.ts|10.ts|11.ts|12.ts|13.ts|14.ts|15.ts|16.ts|17.ts|18.ts|19.ts|20.ts|21.ts|22.ts|23.ts|24.ts|25.ts|26.ts|27.ts|28.ts|29.ts|30.ts|31.ts|" -map "0:v?" -map "0:a?" -map "0:s?" -metadata "date=2023-02-26T18:00:53.3379758+08:00" -metadata "encoding_tool=" -metadata "title=" -metadata "copyright=" -metadata "comment=" -metadata:s:a:0 "handler_name=" -metadata:s:a:0 "handler=" -c copy -y -bsf:a aac_adtstoasc "D:\\java\\GitHub\\pornMagnetSpringBoot\\Downloads\\\xc5\xae\xc9\xf1\xd3\xc6\xd3\xc6JK\xc0\xb4\xc0\xb2\xa3\xa1\xba\xda\xcb\xbf\xc3\xc0\xcd\xc8\xb0\xd9\xf1\xde\xc8\xb9\xa3\xa1\xd6\xc6\xb7\xfe\xc1\xec\xb4\xf8\xd0\xa1\xc6\xa4\xd0\xac\xa3\xa1.mp4"
ffmpeg version N-94813-g85386c36e3-ffmpeg-for-N_m3u8DL-CLI Copyright (c) 2000-2019 the FFmpeg developers
  built with gcc 8.2.0 (GCC)
  libavutil      56. 35.100 / 56. 35.100
  libavcodec     58. 56.101 / 58. 56.101
  libavformat    58. 32.104 / 58. 32.104
  libavfilter     7. 58.102 /  7. 58.102
  libavresample   4.  0.  0 /  4.  0.  0
  libswresample   3.  6.100 /  3.  6.100
Input #0, mpegts, from 'concat:00.ts|01.ts|02.ts|03.ts|04.ts|05.ts|06.ts|07.ts|08.ts|09.ts|10.ts|11.ts|12.ts|13.ts|14.ts|15.ts|16.ts|17.ts|18.ts|19.ts|20.ts|21.ts|22.ts|23.ts|24.ts|25.ts|26.ts|27.ts|28.ts|29.ts|30.ts|31.ts|':
  Duration: 00:05:14.40, start: 1.418667, bitrate: 763 kb/s
  Program 1 
    Metadata:
      service_name    : Service01
      service_provider: FFmpeg
    Stream #0:0[0x100]: Video: h264 ([27][0][0][0] / 0x001B), yuv420p(progressive), 600x336 [SAR 224:225 DAR 16:9], 50 fps, 50 tbr, 90k tbn, 100 tbc
    Stream #0:1[0x101](zho): Audio: aac ([15][0][0][0] / 0x000F), 48000 Hz, stereo, fltp, 4 kb/s
Output #0, mp4, to 'D:\java\GitHub\pornMagnetSpringBoot\Downloads\女神悠悠JK来啦！黑丝美腿百褶裙！制服领带小皮鞋！.mp4':
  Metadata:
    date            : 2023-02-26T18:00:53.3379758+08:00
    encoder         : Lavf58.32.104
    Stream #0:0: Video: h264 (avc1 / 0x31637661), yuv420p(progressive), 600x336 [SAR 224:225 DAR 16:9], q=2-31, 50 fps, 50 tbr, 90k tbn, 90k tbc
    Stream #0:1(zho): Audio: aac (mp4a / 0x6134706D), 48000 Hz, stereo, fltp, 4 kb/s
Stream mapping:
  Stream #0:0 -> #0:0 (copy)
  Stream #0:1 -> #0:1 (copy)
Press [q] to stop, [?] for help
frame=15719 fps=0.0 q=-1.0 Lsize=   27019kB time=00:05:14.38 bitrate= 704.0kbits/s speed=1.76e+03x    
video:21822kB audio:4815kB subtitle:0kB other streams:0kB global headers:0kB muxing overhead: 1.430114%
